<svg version="1.1" id="Layer_1" xmlns="http://www.w3.org/2000/svg" xmlns:xlink="http://www.w3.org/1999/xlink" x="0px" y="0px"
	 width="100%" viewBox="0 0 500 500" enable-background="new 0 0 500 500" xml:space="preserve">
<path fill="#000000" opacity="1.000000" stroke="none" 
	d="
M466.000000,501.000000 
	C310.666718,501.000000 155.833405,501.000000 1.000083,501.000000 
	C1.000055,334.333405 1.000055,167.666824 1.000028,1.000173 
	C167.666550,1.000115 334.333099,1.000115 500.999756,1.000057 
	C500.999817,167.666519 500.999817,334.333038 500.999908,500.999756 
	C489.500000,501.000000 478.000000,501.000000 466.000000,501.000000 
M145.583054,269.817383 
	C142.274658,264.335876 138.966263,258.854370 135.598526,253.274551 
	C136.548447,252.840622 137.469101,252.461151 138.352890,252.009521 
	C143.103622,249.581818 145.404510,245.162354 144.576050,240.100479 
	C143.768707,235.167572 140.538498,231.435501 135.310013,231.104736 
	C127.721092,230.624634 120.079231,230.981644 112.330956,230.981644 
	C112.330956,243.959976 112.330956,256.872284 112.330956,270.074493 
	C114.180405,269.976898 115.759987,269.893524 117.724091,269.789856 
	C117.724091,264.374542 117.724091,259.277191 117.724091,254.251480 
	C129.292053,252.778641 129.291855,252.778763 134.827911,261.656799 
	C135.794571,263.206970 137.008270,264.657074 137.680496,266.325592 
	C139.051773,269.729218 141.543869,270.538116 145.583054,269.817383 
M265.928406,262.177795 
	C265.983154,257.566193 266.626617,252.868042 265.964172,248.361877 
	C264.764252,240.199585 257.273041,236.774750 249.827286,240.469269 
	C248.862991,240.947754 247.924301,241.477829 246.165054,242.414612 
	C246.165054,237.332336 246.165054,232.976929 246.165054,228.319183 
	C244.101578,228.459000 242.700256,228.553955 241.174469,228.657349 
	C241.174469,242.593063 241.174469,256.166595 241.174469,271.049805 
	C243.687683,269.613678 245.503586,268.575989 247.504944,267.432343 
	C254.270172,273.151947 261.802673,271.550751 265.928406,262.177795 
M392.023193,241.513153 
	C392.023193,237.232742 392.023193,232.952316 392.023193,228.390915 
	C390.051422,228.481949 388.656311,228.546371 386.924805,228.626312 
	C386.924805,233.524536 386.924805,238.098846 386.924805,242.913025 
	C376.723572,235.461105 367.995941,239.185272 366.717346,251.313324 
	C366.356140,254.739944 366.513794,258.335541 367.129486,261.727325 
	C368.453094,269.019318 374.938599,272.508972 381.903870,269.860565 
	C383.664154,269.191254 385.167297,267.845734 386.788605,266.810913 
	C386.651337,267.253845 386.514038,267.696747 386.376740,268.139679 
	C388.060150,268.883179 389.743561,269.626648 392.023193,270.633484 
	C392.023193,260.464508 392.023193,251.486343 392.023193,241.513153 
M332.827240,255.547668 
	C332.797974,253.219177 332.921204,250.876892 332.712250,248.564636 
	C331.940338,240.023224 324.286163,236.303131 316.874329,240.812057 
	C315.970795,241.361725 315.113678,241.987640 313.483276,243.083572 
	C313.483276,237.722260 313.483276,233.183670 313.483276,228.287064 
	C311.520752,228.419876 310.116272,228.514938 308.558350,228.620361 
	C308.558350,242.572205 308.558350,256.149109 308.558350,270.106262 
	C310.356476,269.979248 311.898712,269.870331 313.832306,269.733765 
	C313.832306,262.998596 313.588440,256.679565 313.912506,250.389847 
	C314.154663,245.689468 317.447754,243.000198 321.754333,243.102585 
	C326.881500,243.224503 327.466034,246.849686 327.521973,250.712967 
	C327.613312,257.017761 327.546661,263.324890 327.546661,269.745728 
	C329.431885,269.745728 330.979919,269.745728 332.827240,269.745728 
	C332.827240,265.136383 332.827240,260.831909 332.827240,255.547668 
M165.813675,239.378448 
	C156.150696,238.530945 151.213181,241.915283 149.521759,250.545486 
	C147.746887,259.601532 151.185089,267.873383 157.752960,269.813019 
	C164.709839,271.867554 173.859344,269.812683 174.914261,262.634247 
	C173.131470,262.954224 171.044022,262.692657 170.160049,263.601562 
	C166.937332,266.915222 163.286682,267.694305 159.305420,265.891388 
	C155.277069,264.067169 154.563202,260.339569 154.860062,255.920593 
	C161.911667,255.920593 168.834976,255.920593 175.723312,255.920593 
	C176.347275,246.662827 173.682541,242.038071 165.813675,239.378448 
M336.864044,257.003845 
	C337.748901,265.690369 341.187592,269.581024 348.725525,270.424469 
	C355.786316,271.214478 360.307648,268.857941 362.461243,262.473328 
	C360.484222,262.938690 358.538940,262.810669 357.613007,263.720245 
	C354.339508,266.935913 350.653961,267.734985 346.708099,265.839050 
	C342.821198,263.971436 341.991211,260.279846 342.204559,255.719666 
	C349.436768,255.719666 356.481079,255.719666 363.627716,255.719666 
	C363.195038,248.711517 362.560272,242.360443 355.065613,239.911972 
	C344.074249,236.321167 336.833435,242.820663 336.864044,257.003845 
M213.253143,245.741760 
	C213.230881,249.897232 213.347855,254.059265 213.151962,258.206543 
	C212.893143,263.686096 210.019699,266.671906 205.347870,266.677246 
	C200.998871,266.682220 199.344131,264.485168 199.271133,258.303436 
	C199.199020,252.196228 199.255386,246.087509 199.255386,239.735107 
	C197.301483,239.832809 195.856461,239.905060 194.159439,239.989914 
	C194.159439,247.207779 193.887909,254.165955 194.228470,261.094025 
	C194.650009,269.669891 202.739197,273.550140 210.006271,268.903961 
	C211.053070,268.234680 211.972000,267.365417 213.647110,266.035187 
	C213.033997,271.046600 215.673157,270.282135 218.121735,269.756317 
	C218.121735,259.733978 218.121735,249.848145 218.121735,239.680603 
	C216.303482,239.835617 214.871857,239.957657 213.253159,240.095657 
	C213.253159,241.877045 213.253159,243.352829 213.253143,245.741760 
M287.946960,255.610809 
	C290.811646,256.452606 293.799835,257.025024 296.485596,258.256897 
	C297.713593,258.820160 298.887878,260.606842 299.079163,261.979065 
	C299.236267,263.105896 298.209564,264.875244 297.175140,265.602020 
	C293.942291,267.873413 287.757690,266.690948 284.694855,263.984253 
	C283.547241,262.970062 281.596222,262.865021 278.973511,262.005157 
	C282.126617,269.234772 286.397064,271.281860 294.009674,270.474640 
	C300.377045,269.799438 303.664764,267.325287 304.170349,262.828400 
	C304.747833,257.691345 302.393524,254.908585 295.787201,252.959793 
	C293.399506,252.255447 290.823303,251.928192 288.668427,250.792603 
	C287.328949,250.086716 285.746643,248.102478 285.868500,246.846786 
	C285.992950,245.564316 288.130005,243.427261 289.276245,243.495926 
	C292.382629,243.682022 295.442627,244.796005 298.497162,245.629517 
	C300.080963,246.061691 301.614197,246.679153 303.863403,247.450653 
	C301.483826,240.521164 296.737762,238.145874 289.399200,239.338791 
	C285.096130,240.038269 281.234833,241.401794 280.685669,246.660309 
	C280.168396,251.613373 283.096802,253.910233 287.946960,255.610809 
M177.231339,240.696060 
	C177.392395,241.476593 177.559601,242.940002 177.713623,242.938614 
	C182.640594,242.894287 181.500778,246.484879 181.522339,249.268021 
	C181.575104,256.077545 181.539566,262.887756 181.539566,270.090668 
	C183.464569,269.958160 185.007919,269.851929 187.017685,269.713593 
	C187.017685,260.737000 187.017685,252.182266 187.017685,244.908920 
	C189.469299,243.332703 191.024979,242.332520 192.580658,241.332306 
	C190.819870,240.544281 189.059082,239.756256 186.940872,238.808258 
	C186.902679,236.278366 185.632629,232.724869 190.828049,232.513474 
	C191.438965,232.488632 192.609741,231.084976 192.475266,230.776733 
	C192.102600,229.922638 191.282089,228.871689 190.453156,228.673294 
	C185.497101,227.487198 182.040100,230.052841 181.705078,235.381317 
	C181.528244,238.193756 181.235168,240.338303 177.231339,240.696060 
M224.106125,259.469391 
	C224.106125,262.915283 224.106125,266.361176 224.106125,269.841919 
	C226.046844,269.841919 227.507156,269.841919 229.583511,269.841919 
	C229.583511,263.383179 229.349594,257.091034 229.661636,250.826126 
	C229.888672,246.267593 232.317398,243.415802 237.396515,243.839645 
	C237.630096,243.859146 237.894348,243.511032 238.443237,243.122574 
	C238.273788,241.925201 238.081299,240.565063 237.686295,237.774063 
	C234.263931,239.873413 231.672104,241.463303 229.143127,243.014618 
	C229.045242,242.451584 228.821518,241.164978 228.616058,239.983322 
	C226.925140,239.983322 225.644897,239.983322 224.106125,239.983322 
	C224.106125,246.285706 224.106125,252.381363 224.106125,259.469391 
M271.032562,262.425446 
	C271.032562,264.872223 271.032562,267.319000 271.032562,269.766418 
	C272.956543,269.766418 274.363617,269.766418 275.902283,269.766418 
	C275.902283,259.767151 275.902283,250.007538 275.902283,240.157471 
	C274.218628,240.157471 272.720764,240.157471 271.032562,240.157471 
	C271.032562,247.491104 271.032562,254.468018 271.032562,262.425446 
M270.114807,230.953781 
	C269.950592,230.980179 269.772888,230.976410 269.626251,231.042068 
	C269.497833,231.099533 269.297119,231.304855 269.310883,231.325989 
	C269.895905,232.224472 270.327850,233.357956 271.149353,233.932098 
	C272.126373,234.614914 273.676117,235.423843 274.552948,235.083572 
	C275.881744,234.567902 277.945496,232.760269 277.742889,232.118149 
	C277.254761,230.571274 275.844879,228.892899 274.377991,228.257568 
	C273.657745,227.945648 271.983978,229.835297 270.114807,230.953781 
z"/>
<path fill="#ECECEC" opacity="1.000000" stroke="none" 
	d="
M145.207245,269.909119 
	C141.543869,270.538116 139.051773,269.729218 137.680496,266.325592 
	C137.008270,264.657074 135.794571,263.206970 134.827911,261.656799 
	C129.291855,252.778763 129.292053,252.778641 117.724091,254.251480 
	C117.724091,259.277191 117.724091,264.374542 117.724091,269.789856 
	C115.759987,269.893524 114.180405,269.976898 112.330956,270.074493 
	C112.330956,256.872284 112.330956,243.959976 112.330956,230.981644 
	C120.079231,230.981644 127.721092,230.624634 135.310013,231.104736 
	C140.538498,231.435501 143.768707,235.167572 144.576050,240.100479 
	C145.404510,245.162354 143.103622,249.581818 138.352890,252.009521 
	C137.469101,252.461151 136.548447,252.840622 135.598526,253.274551 
	C138.966263,258.854370 142.274658,264.335876 145.207245,269.909119 
M124.466934,234.949158 
	C122.230949,234.949158 119.994972,234.949158 117.965919,234.949158 
	C117.965919,240.134171 117.965919,244.555832 117.965919,249.080139 
	C123.077538,249.080139 127.890358,249.302017 132.672073,249.011703 
	C136.683075,248.768188 138.968048,246.381836 139.124008,242.184372 
	C139.285492,237.838409 136.789429,235.738663 132.915649,235.150970 
	C130.468933,234.779770 127.933060,234.996262 124.466934,234.949158 
z"/>
<path fill="#F1F1F1" opacity="1.000000" stroke="none" 
	d="
M265.814301,262.562012 
	C261.802673,271.550751 254.270172,273.151947 247.504944,267.432343 
	C245.503586,268.575989 243.687683,269.613678 241.174469,271.049805 
	C241.174469,256.166595 241.174469,242.593063 241.174469,228.657349 
	C242.700256,228.553955 244.101578,228.459000 246.165054,228.319183 
	C246.165054,232.976929 246.165054,237.332336 246.165054,242.414612 
	C247.924301,241.477829 248.862991,240.947754 249.827286,240.469269 
	C257.273041,236.774750 264.764252,240.199585 265.964172,248.361877 
	C266.626617,252.868042 265.983154,257.566193 265.814301,262.562012 
M261.191620,251.827591 
	C260.891937,247.394455 259.941681,243.393555 254.420334,243.086075 
	C249.898590,242.834244 247.050873,245.564209 246.470322,251.419983 
	C246.133316,254.819168 246.470306,258.392975 247.154266,261.755951 
	C247.871109,265.280701 250.714767,266.833618 254.224747,266.830048 
	C257.955780,266.826233 260.131561,264.606567 260.746582,261.162506 
	C261.238342,258.408508 261.108063,255.543365 261.191620,251.827591 
z"/>
<path fill="#F5F5F5" opacity="1.000000" stroke="none" 
	d="
M392.023193,242.010666 
	C392.023193,251.486343 392.023193,260.464508 392.023193,270.633484 
	C389.743561,269.626648 388.060150,268.883179 386.376740,268.139679 
	C386.514038,267.696747 386.651337,267.253845 386.788605,266.810913 
	C385.167297,267.845734 383.664154,269.191254 381.903870,269.860565 
	C374.938599,272.508972 368.453094,269.019318 367.129486,261.727325 
	C366.513794,258.335541 366.356140,254.739944 366.717346,251.313324 
	C367.995941,239.185272 376.723572,235.461105 386.924805,242.913025 
	C386.924805,238.098846 386.924805,233.524536 386.924805,228.626312 
	C388.656311,228.546371 390.051422,228.481949 392.023193,228.390915 
	C392.023193,232.952316 392.023193,237.232742 392.023193,242.010666 
M381.006683,243.098679 
	C376.878021,242.468750 373.252991,243.512848 372.643188,247.996170 
	C372.027252,252.524734 371.869751,257.331512 372.717224,261.787018 
	C373.708649,266.999054 380.417175,268.367889 384.181671,264.616638 
	C388.955872,259.859222 387.514557,247.020996 381.006683,243.098679 
z"/>
<path fill="#E2E2E2" opacity="1.000000" stroke="none" 
	d="
M332.827240,256.037537 
	C332.827240,260.831909 332.827240,265.136383 332.827240,269.745728 
	C330.979919,269.745728 329.431885,269.745728 327.546661,269.745728 
	C327.546661,263.324890 327.613312,257.017761 327.521973,250.712967 
	C327.466034,246.849686 326.881500,243.224503 321.754333,243.102585 
	C317.447754,243.000198 314.154663,245.689468 313.912506,250.389847 
	C313.588440,256.679565 313.832306,262.998596 313.832306,269.733765 
	C311.898712,269.870331 310.356476,269.979248 308.558350,270.106262 
	C308.558350,256.149109 308.558350,242.572205 308.558350,228.620361 
	C310.116272,228.514938 311.520752,228.419876 313.483276,228.287064 
	C313.483276,233.183670 313.483276,237.722260 313.483276,243.083572 
	C315.113678,241.987640 315.970795,241.361725 316.874329,240.812057 
	C324.286163,236.303131 331.940338,240.023224 332.712250,248.564636 
	C332.921204,250.876892 332.797974,253.219177 332.827240,256.037537 
z"/>
<path fill="#F1F1F1" opacity="1.000000" stroke="none" 
	d="
M166.198181,239.508392 
	C173.682541,242.038071 176.347275,246.662827 175.723312,255.920593 
	C168.834976,255.920593 161.911667,255.920593 154.860062,255.920593 
	C154.563202,260.339569 155.277069,264.067169 159.305420,265.891388 
	C163.286682,267.694305 166.937332,266.915222 170.160049,263.601562 
	C171.044022,262.692657 173.131470,262.954224 174.914261,262.634247 
	C173.859344,269.812683 164.709839,271.867554 157.752960,269.813019 
	C151.185089,267.873383 147.746887,259.601532 149.521759,250.545486 
	C151.213181,241.915283 156.150696,238.530945 166.198181,239.508392 
M160.571991,252.014450 
	C163.892929,252.014450 167.213867,252.014450 170.565704,252.014450 
	C169.751129,245.139709 167.424911,242.700638 162.187729,242.986923 
	C157.491852,243.243622 155.106216,246.220200 155.165649,252.014450 
	C156.646301,252.014450 158.134171,252.014450 160.571991,252.014450 
z"/>
<path fill="#F2F2F2" opacity="1.000000" stroke="none" 
	d="
M336.844177,256.597534 
	C336.833435,242.820663 344.074249,236.321167 355.065613,239.911972 
	C362.560272,242.360443 363.195038,248.711517 363.627716,255.719666 
	C356.481079,255.719666 349.436768,255.719666 342.204559,255.719666 
	C341.991211,260.279846 342.821198,263.971436 346.708099,265.839050 
	C350.653961,267.734985 354.339508,266.935913 357.613007,263.720245 
	C358.538940,262.810669 360.484222,262.938690 362.461243,262.473328 
	C360.307648,268.857941 355.786316,271.214478 348.725525,270.424469 
	C341.187592,269.581024 337.748901,265.690369 336.844177,256.597534 
M357.028320,251.995605 
	C356.660675,249.743958 357.049164,246.338531 355.759705,245.493484 
	C353.450104,243.979874 349.617371,242.776276 347.367706,243.713882 
	C344.769897,244.796570 343.195465,248.334702 341.176697,250.806641 
	C341.555054,251.209671 341.933411,251.612701 342.311798,252.015732 
	C346.914734,252.015732 351.517670,252.015732 357.028320,251.995605 
z"/>
<path fill="#F1F1F1" opacity="1.000000" stroke="none" 
	d="
M213.253143,245.285187 
	C213.253159,243.352829 213.253159,241.877045 213.253159,240.095657 
	C214.871857,239.957657 216.303482,239.835617 218.121735,239.680603 
	C218.121735,249.848145 218.121735,259.733978 218.121735,269.756317 
	C215.673157,270.282135 213.033997,271.046600 213.647110,266.035187 
	C211.972000,267.365417 211.053070,268.234680 210.006271,268.903961 
	C202.739197,273.550140 194.650009,269.669891 194.228470,261.094025 
	C193.887909,254.165955 194.159439,247.207779 194.159439,239.989914 
	C195.856461,239.905060 197.301483,239.832809 199.255386,239.735107 
	C199.255386,246.087509 199.199020,252.196228 199.271133,258.303436 
	C199.344131,264.485168 200.998871,266.682220 205.347870,266.677246 
	C210.019699,266.671906 212.893143,263.686096 213.151962,258.206543 
	C213.347855,254.059265 213.230881,249.897232 213.253143,245.285187 
z"/>
<path fill="#F1F1F1" opacity="1.000000" stroke="none" 
	d="
M287.601929,255.446930 
	C283.096802,253.910233 280.168396,251.613373 280.685669,246.660309 
	C281.234833,241.401794 285.096130,240.038269 289.399200,239.338791 
	C296.737762,238.145874 301.483826,240.521164 303.863403,247.450653 
	C301.614197,246.679153 300.080963,246.061691 298.497162,245.629517 
	C295.442627,244.796005 292.382629,243.682022 289.276245,243.495926 
	C288.130005,243.427261 285.992950,245.564316 285.868500,246.846786 
	C285.746643,248.102478 287.328949,250.086716 288.668427,250.792603 
	C290.823303,251.928192 293.399506,252.255447 295.787201,252.959793 
	C302.393524,254.908585 304.747833,257.691345 304.170349,262.828400 
	C303.664764,267.325287 300.377045,269.799438 294.009674,270.474640 
	C286.397064,271.281860 282.126617,269.234772 278.973511,262.005157 
	C281.596222,262.865021 283.547241,262.970062 284.694855,263.984253 
	C287.757690,266.690948 293.942291,267.873413 297.175140,265.602020 
	C298.209564,264.875244 299.236267,263.105896 299.079163,261.979065 
	C298.887878,260.606842 297.713593,258.820160 296.485596,258.256897 
	C293.799835,257.025024 290.811646,256.452606 287.601929,255.446930 
z"/>
<path fill="#ECECEC" opacity="1.000000" stroke="none" 
	d="
M177.475800,240.363525 
	C181.235168,240.338303 181.528244,238.193756 181.705078,235.381317 
	C182.040100,230.052841 185.497101,227.487198 190.453156,228.673294 
	C191.282089,228.871689 192.102600,229.922638 192.475266,230.776733 
	C192.609741,231.084976 191.438965,232.488632 190.828049,232.513474 
	C185.632629,232.724869 186.902679,236.278366 186.940872,238.808258 
	C189.059082,239.756256 190.819870,240.544281 192.580658,241.332306 
	C191.024979,242.332520 189.469299,243.332703 187.017685,244.908920 
	C187.017685,252.182266 187.017685,260.737000 187.017685,269.713593 
	C185.007919,269.851929 183.464569,269.958160 181.539566,270.090668 
	C181.539566,262.887756 181.575104,256.077545 181.522339,249.268021 
	C181.500778,246.484879 182.640594,242.894287 177.713623,242.938614 
	C177.559601,242.940002 177.392395,241.476593 177.475800,240.363525 
z"/>
<path fill="#F2F2F2" opacity="1.000000" stroke="none" 
	d="
M224.106125,258.973206 
	C224.106125,252.381363 224.106125,246.285706 224.106125,239.983322 
	C225.644897,239.983322 226.925140,239.983322 228.616058,239.983322 
	C228.821518,241.164978 229.045242,242.451584 229.143127,243.014618 
	C231.672104,241.463303 234.263931,239.873413 237.686295,237.774063 
	C238.081299,240.565063 238.273788,241.925201 238.443237,243.122574 
	C237.894348,243.511032 237.630096,243.859146 237.396515,243.839645 
	C232.317398,243.415802 229.888672,246.267593 229.661636,250.826126 
	C229.349594,257.091034 229.583511,263.383179 229.583511,269.841919 
	C227.507156,269.841919 226.046844,269.841919 224.106125,269.841919 
	C224.106125,266.361176 224.106125,262.915283 224.106125,258.973206 
z"/>
<path fill="#FBFBFB" opacity="1.000000" stroke="none" 
	d="
M271.032562,261.935181 
	C271.032562,254.468018 271.032562,247.491104 271.032562,240.157471 
	C272.720764,240.157471 274.218628,240.157471 275.902283,240.157471 
	C275.902283,250.007538 275.902283,259.767151 275.902283,269.766418 
	C274.363617,269.766418 272.956543,269.766418 271.032562,269.766418 
	C271.032562,267.319000 271.032562,264.872223 271.032562,261.935181 
z"/>
<path fill="#ECECEC" opacity="1.000000" stroke="none" 
	d="
M270.428284,230.841187 
	C271.983978,229.835297 273.657745,227.945648 274.377991,228.257568 
	C275.844879,228.892899 277.254761,230.571274 277.742889,232.118149 
	C277.945496,232.760269 275.881744,234.567902 274.552948,235.083572 
	C273.676117,235.423843 272.126373,234.614914 271.149353,233.932098 
	C270.327850,233.357956 269.895905,232.224472 269.310883,231.325989 
	C269.297119,231.304855 269.497833,231.099533 269.626251,231.042068 
	C269.772888,230.976410 269.950592,230.980179 270.428284,230.841187 
z"/>
<path fill="#020202" opacity="1.000000" stroke="none" 
	d="
M124.952057,234.949158 
	C127.933060,234.996262 130.468933,234.779770 132.915649,235.150970 
	C136.789429,235.738663 139.285492,237.838409 139.124008,242.184372 
	C138.968048,246.381836 136.683075,248.768188 132.672073,249.011703 
	C127.890358,249.302017 123.077538,249.080139 117.965919,249.080139 
	C117.965919,244.555832 117.965919,240.134171 117.965919,234.949158 
	C119.994972,234.949158 122.230949,234.949158 124.952057,234.949158 
z"/>
<path fill="#070707" opacity="1.000000" stroke="none" 
	d="
M261.222778,252.277573 
	C261.108063,255.543365 261.238342,258.408508 260.746582,261.162506 
	C260.131561,264.606567 257.955780,266.826233 254.224747,266.830048 
	C250.714767,266.833618 247.871109,265.280701 247.154266,261.755951 
	C246.470306,258.392975 246.133316,254.819168 246.470322,251.419983 
	C247.050873,245.564209 249.898590,242.834244 254.420334,243.086075 
	C259.941681,243.393555 260.891937,247.394455 261.222778,252.277573 
z"/>
<path fill="#060606" opacity="1.000000" stroke="none" 
	d="
M381.397888,243.201981 
	C387.514557,247.020996 388.955872,259.859222 384.181671,264.616638 
	C380.417175,268.367889 373.708649,266.999054 372.717224,261.787018 
	C371.869751,257.331512 372.027252,252.524734 372.643188,247.996170 
	C373.252991,243.512848 376.878021,242.468750 381.397888,243.201981 
z"/>
<path fill="#060606" opacity="1.000000" stroke="none" 
	d="
M160.097015,252.014450 
	C158.134171,252.014450 156.646301,252.014450 155.165649,252.014450 
	C155.106216,246.220200 157.491852,243.243622 162.187729,242.986923 
	C167.424911,242.700638 169.751129,245.139709 170.565704,252.014450 
	C167.213867,252.014450 163.892929,252.014450 160.097015,252.014450 
z"/>
<path fill="#060606" opacity="1.000000" stroke="none" 
	d="
M356.574463,252.005676 
	C351.517670,252.015732 346.914734,252.015732 342.311798,252.015732 
	C341.933411,251.612701 341.555054,251.209671 341.176697,250.806641 
	C343.195465,248.334702 344.769897,244.796570 347.367706,243.713882 
	C349.617371,242.776276 353.450104,243.979874 355.759705,245.493484 
	C357.049164,246.338531 356.660675,249.743958 356.574463,252.005676 
z"/>
</svg>